<svg width="594" height="94" viewBox="0 0 594 94" fill="none" xmlns="http://www.w3.org/2000/svg">
<g clip-path="url(#clip0_657_84)">
<path d="M110.743 33.4561L96.5661 59.2207H101.656L105.172 52.742H120.461L123.977 59.2207H129.137L114.96 33.4561H110.743ZM107.476 48.4763L112.816 38.6531L118.156 48.4763H107.476Z" fill="#2E6FF2"/>
<path d="M136.02 33.4561H131.481V59.2207H154.504V54.8849H136.02V33.4561Z" fill="#2E6FF2"/>
<path d="M168.691 49.3675H179.651V51.4703C177.688 54.8949 173.309 55.6159 169.963 55.6159C162.76 55.6159 158.792 52.3215 158.792 46.3434C158.792 40.3654 162.69 37.071 169.763 37.071C173.861 37.071 176.836 38.3127 178.88 40.8661L179.361 41.4669L183.258 38.7432L182.667 38.0523C180.593 35.6291 176.676 32.7352 169.763 32.7352C160.155 32.7352 154.184 37.9522 154.184 46.3434C154.184 54.7347 160.195 59.9517 169.863 59.9517C176.345 59.9517 181.795 57.2681 184.11 52.9323L184.21 52.7521V45.0417H168.701V49.3775L168.691 49.3675Z" fill="#2E6FF2"/>
<path d="M202.374 32.7352C192.806 32.7352 186.865 37.9522 186.865 46.3434C186.865 54.7347 192.806 59.9517 202.374 59.9517C211.942 59.9517 217.883 54.7347 217.883 46.3434C217.883 37.9522 211.942 32.7352 202.374 32.7352ZM202.374 55.6159C195.551 55.6159 191.473 52.1512 191.473 46.3434C191.473 40.5356 195.551 37.071 202.374 37.071C209.197 37.071 213.274 40.5356 213.274 46.3434C213.274 52.1512 209.197 55.6159 202.374 55.6159Z" fill="#2E6FF2"/>
<path d="M249.542 41.7172C249.542 36.7005 245.595 33.4561 239.473 33.4561H222.451V59.2207H227.03V49.9883H237.309L245.304 59.2207H251.295L242.819 49.6178C246.997 48.6365 249.532 45.7126 249.532 41.7172H249.542ZM226.99 45.6525V37.792H239.263C241.848 37.792 244.923 38.4729 244.923 41.7272C244.923 44.9816 241.848 45.6625 239.263 45.6625H226.99V45.6525Z" fill="#2E6FF2"/>
<path d="M258.889 33.4561H254.351V59.2207H258.889V33.4561Z" fill="#2E6FF2"/>
<path d="M262.005 37.7219H273.386V59.2207H277.925V37.7219H289.336V33.4561H262.005V37.7219Z" fill="#2E6FF2"/>
<path d="M315.205 43.9703H296.991V33.4561H292.452V59.2207H296.991V48.3662H315.205V59.2207H319.753V33.4561H315.205V43.9703Z" fill="#2E6FF2"/>
<path d="M342.205 47.7253L330.493 33.4561H326.115V59.2207H330.583V40.6358L341.644 54.0238H342.626L353.686 40.6358V59.2207H358.235V33.4561H353.917L342.205 47.7253Z" fill="#2E6FF2"/>
<path d="M399.001 45.7927C400.714 44.6912 401.726 42.7887 401.726 40.4155C401.726 36.1197 398.2 33.4561 392.529 33.4561H375.637V59.2207H393.21C399.492 59.2207 403.099 56.5071 403.099 51.7807C403.099 49.5678 402.307 46.9743 399.001 45.7827V45.7927ZM380.146 37.7219H392.108C396.577 37.7219 397.178 39.294 397.178 40.826C397.178 42.3581 396.577 43.9302 392.108 43.9302H380.146V37.7219ZM392.699 54.955H380.146V48.1959H392.699C397.859 48.1959 398.46 50.1285 398.46 51.5805C398.46 53.0324 397.859 54.965 392.699 54.965V54.955Z" fill="#2E6FF2"/>
<path d="M412.106 48.2961H429.137V43.9703H412.106V37.792H432.203V33.4561H407.557V59.2207H432.544V54.8849H412.106V48.2961Z" fill="#2E6FF2"/>
<path d="M449.345 43.8301C444.346 43.4395 439.867 42.8988 439.867 40.5857C439.867 40.025 440.088 39.5343 440.539 39.0937C441.801 37.832 444.877 37.0209 448.383 37.071C452.281 37.101 455.607 38.2826 457.741 40.3854L458.272 40.9162L461.849 37.8821L461.137 37.2512C457.911 34.3874 453.212 32.7352 448.243 32.7352C440.589 32.7352 435.249 36.0096 435.249 40.6858C435.249 46.4236 442.883 47.7353 448.624 48.226C455.677 48.8268 457.931 49.6479 457.931 51.6105C457.931 54.1139 454.785 55.6159 449.515 55.6159C444.817 55.6159 441.1 54.2641 437.824 51.3802L437.222 50.8495L434.057 54.224L434.698 54.7848C438.485 58.1193 443.685 59.9517 449.345 59.9517C457.36 59.9517 462.55 56.5972 462.55 51.4103C462.55 45.6826 456.208 44.3808 449.345 43.8401V43.8301Z" fill="#2E6FF2"/>
<path d="M462.67 37.7219H474.041V59.2207H478.59V37.7219H490.001V33.4561H462.67V37.7219Z" fill="#2E6FF2"/>
<path d="M46.5226 76.8845C30.3123 76.8845 17.1177 63.7068 17.1177 47.495C17.1177 31.2832 30.3023 18.1155 46.5226 18.1155C58.9759 18.1155 69.6158 25.906 73.8938 36.8607L76.4085 32.4047C70.8781 21.4901 59.587 14 46.5226 14C28.008 14 13 29.0001 13 47.505C13 66.0099 28.008 81.01 46.5226 81.01C54.9684 81.01 62.6628 77.8658 68.5638 72.7089H61.5707C57.1625 75.3524 52.0229 76.8945 46.5226 76.8945V76.8845Z" fill="#2E6FF2"/>
<path d="M32.6367 33.4561V59.2207H37.1752V50.3989H49.5884C55.6998 50.3989 59.6572 47.0744 59.6572 41.9275C59.6572 36.7806 55.7098 33.4561 49.5884 33.4561H32.6367ZM55.0486 41.9275C55.0486 45.3521 51.9728 46.0631 49.388 46.0631H37.1752V37.7819H49.388C51.9728 37.7819 55.0486 38.5029 55.0486 41.9175V41.9275Z" fill="#2E6FF2"/>
<path d="M72.6013 52.5618L64.7367 38.8033H59.6672L70.1367 57.0879L64.7767 66.12H69.766L85.3652 38.8033H80.3558L72.6013 52.5618Z" fill="#2E6FF2"/>
<path fill-rule="evenodd" clip-rule="evenodd" d="M532.44 32.75C527.859 32.75 524.118 34.0562 521.52 36.4395C518.919 38.8251 517.49 42.266 517.49 46.48C517.49 50.694 518.919 54.1349 521.52 56.5205C524.118 58.9038 527.859 60.21 532.44 60.21C537.021 60.21 540.76 58.9038 543.355 56.5204C545.953 54.1347 547.38 50.6938 547.38 46.48C547.38 42.266 545.951 38.8252 543.352 36.4396C540.755 34.0562 537.017 32.75 532.44 32.75ZM522.18 46.48C522.18 43.4413 523.095 41.1209 524.811 39.5573C526.53 37.9903 529.089 37.15 532.44 37.15C535.791 37.15 538.35 37.9903 540.069 39.5573C541.785 41.1209 542.7 43.4413 542.7 46.48C542.7 49.5187 541.785 51.8391 540.069 53.4027C538.35 54.9697 535.791 55.81 532.44 55.81C529.089 55.81 526.53 54.9697 524.811 53.4027C523.095 51.8391 522.18 49.5187 522.18 46.48Z" fill="#2E6FF2"/>
<path d="M512.93 33.48H509.535L508.939 34.0063C506.522 36.0334 503.881 37.3301 501.473 37.6928L500.75 37.8062V42.163L501.729 42.0069C504.278 41.601 506.458 40.823 508.32 39.6351V59.48H512.93V33.48Z" fill="#2E6FF2"/>
<path fill-rule="evenodd" clip-rule="evenodd" d="M565.08 32.75C560.499 32.75 556.758 34.0562 554.16 36.4395C551.559 38.8251 550.13 42.266 550.13 46.48C550.13 50.694 551.559 54.1349 554.16 56.5205C556.758 58.9038 560.499 60.21 565.08 60.21C569.661 60.21 573.4 58.9038 575.995 56.5204C578.593 54.1347 580.02 50.6938 580.02 46.48C580.02 42.2662 578.593 38.8253 575.995 36.4396C573.4 34.0562 569.661 32.75 565.08 32.75ZM554.83 46.48C554.83 43.4413 555.745 41.1209 557.461 39.5573C559.18 37.9903 561.739 37.15 565.09 37.15C568.441 37.15 571 37.9903 572.719 39.5573C574.435 41.1209 575.35 43.4413 575.35 46.48C575.35 49.5187 574.435 51.8391 572.719 53.4027C571 54.9697 568.441 55.81 565.09 55.81C561.739 55.81 559.18 54.9697 557.461 53.4027C555.745 51.8391 554.83 49.5187 554.83 46.48Z" fill="#2E6FF2"/>
</g>
<defs>
<clipPath id="clip0_657_84">
<rect width="568" height="68" fill="white" transform="translate(13 14)"/>
</clipPath>
</defs>
</svg>
